<mxfile host="app.diagrams.net" modified="2023-07-23T11:55:21.175Z" agent="Mozilla/5.0 (Windows NT 10.0; Win64; x64) AppleWebKit/537.36 (KHTML, like Gecko) Chrome/114.0.0.0 Safari/537.36 Edg/114.0.1823.86" etag="cEaeY5ly3Ow9XpciF41F" version="21.6.2" type="github">
  <diagram id="QfRjNa3fz2MPJ_dg_Rw2" name="pipes">
    <mxGraphModel dx="1050" dy="602" grid="1" gridSize="10" guides="1" tooltips="1" connect="1" arrows="1" fold="1" page="1" pageScale="1" pageWidth="850" pageHeight="1100" math="0" shadow="0">
      <root>
        <mxCell id="0" />
        <mxCell id="1" parent="0" />
        <mxCell id="ANCBs0r0Tn-Sa9Ewb1qD-1" value="" style="strokeWidth=1;shadow=0;dashed=0;align=center;html=1;shape=mxgraph.mockup.containers.browserWindow;rSize=0;strokeColor=#666666;strokeColor2=#008cff;strokeColor3=#c4c4c4;mainText=,;recursiveResize=0;" vertex="1" parent="1">
          <mxGeometry x="80" y="70" width="720" height="690" as="geometry" />
        </mxCell>
        <mxCell id="ANCBs0r0Tn-Sa9Ewb1qD-2" value="Page 1" style="strokeWidth=1;shadow=0;dashed=0;align=center;html=1;shape=mxgraph.mockup.containers.anchor;fontSize=17;fontColor=#666666;align=left;whiteSpace=wrap;" vertex="1" parent="ANCBs0r0Tn-Sa9Ewb1qD-1">
          <mxGeometry x="60" y="12" width="110" height="26" as="geometry" />
        </mxCell>
        <mxCell id="ANCBs0r0Tn-Sa9Ewb1qD-3" value="https://www.draw.io" style="strokeWidth=1;shadow=0;dashed=0;align=center;html=1;shape=mxgraph.mockup.containers.anchor;rSize=0;fontSize=17;fontColor=#666666;align=left;" vertex="1" parent="ANCBs0r0Tn-Sa9Ewb1qD-1">
          <mxGeometry x="130" y="60" width="250" height="26" as="geometry" />
        </mxCell>
        <mxCell id="ANCBs0r0Tn-Sa9Ewb1qD-15" value="" style="strokeWidth=1;shadow=0;dashed=0;align=center;html=1;shape=mxgraph.mockup.forms.rrect;rSize=0;strokeColor=#d79b00;fillColor=#ffe6cc;" vertex="1" parent="ANCBs0r0Tn-Sa9Ewb1qD-1">
          <mxGeometry x="60" y="170" width="280" height="340" as="geometry" />
        </mxCell>
        <mxCell id="ANCBs0r0Tn-Sa9Ewb1qD-16" value="Employee Onboarding" style="strokeWidth=1;shadow=0;dashed=0;align=center;html=1;shape=mxgraph.mockup.forms.anchor;fontSize=16;fontColor=#666666;align=left;resizeWidth=1;spacingLeft=0;fontStyle=1" vertex="1" parent="ANCBs0r0Tn-Sa9Ewb1qD-15">
          <mxGeometry width="186.66666666666666" height="20" relative="1" as="geometry">
            <mxPoint x="50" y="10" as="offset" />
          </mxGeometry>
        </mxCell>
        <mxCell id="ANCBs0r0Tn-Sa9Ewb1qD-18" value="&lt;b&gt;Name&lt;/b&gt;" style="strokeWidth=1;shadow=0;dashed=0;align=center;html=1;shape=mxgraph.mockup.forms.anchor;fontSize=12;fontColor=#666666;align=left;resizeWidth=1;spacingLeft=0;" vertex="1" parent="ANCBs0r0Tn-Sa9Ewb1qD-15">
          <mxGeometry width="129.62962962962962" height="20" relative="1" as="geometry">
            <mxPoint x="20" y="49" as="offset" />
          </mxGeometry>
        </mxCell>
        <mxCell id="ANCBs0r0Tn-Sa9Ewb1qD-19" value="bishnu rawal" style="strokeWidth=1;shadow=0;dashed=0;align=center;html=1;shape=mxgraph.mockup.forms.rrect;rSize=0;strokeColor=#999999;fontColor=#666666;align=left;spacingLeft=5;resizeWidth=1;fontSize=13;" vertex="1" parent="ANCBs0r0Tn-Sa9Ewb1qD-15">
          <mxGeometry width="238.5185185185185" height="25" relative="1" as="geometry">
            <mxPoint x="20" y="69" as="offset" />
          </mxGeometry>
        </mxCell>
        <mxCell id="ANCBs0r0Tn-Sa9Ewb1qD-20" value="Join Date" style="strokeWidth=1;shadow=0;dashed=0;align=center;html=1;shape=mxgraph.mockup.forms.anchor;fontSize=12;fontColor=#666666;align=left;resizeWidth=1;spacingLeft=0;fontStyle=1" vertex="1" parent="ANCBs0r0Tn-Sa9Ewb1qD-15">
          <mxGeometry width="129.62962962962962" height="20" relative="1" as="geometry">
            <mxPoint x="20" y="111" as="offset" />
          </mxGeometry>
        </mxCell>
        <mxCell id="ANCBs0r0Tn-Sa9Ewb1qD-21" value="10/12/2021" style="strokeWidth=1;shadow=0;dashed=0;align=center;html=1;shape=mxgraph.mockup.forms.rrect;rSize=0;strokeColor=#999999;fontColor=#666666;align=left;spacingLeft=5;resizeWidth=1;" vertex="1" parent="ANCBs0r0Tn-Sa9Ewb1qD-15">
          <mxGeometry width="238.5185185185185" height="25" relative="1" as="geometry">
            <mxPoint x="20" y="131" as="offset" />
          </mxGeometry>
        </mxCell>
        <mxCell id="ANCBs0r0Tn-Sa9Ewb1qD-28" value="Salary" style="strokeWidth=1;shadow=0;dashed=0;align=center;html=1;shape=mxgraph.mockup.forms.anchor;fontSize=12;fontColor=#666666;align=left;resizeWidth=1;spacingLeft=0;fontStyle=1" vertex="1" parent="ANCBs0r0Tn-Sa9Ewb1qD-15">
          <mxGeometry x="20.74074074074074" y="177" width="130.0237037037037" height="20" as="geometry" />
        </mxCell>
        <mxCell id="ANCBs0r0Tn-Sa9Ewb1qD-29" value="10000" style="strokeWidth=1;shadow=0;dashed=0;align=center;html=1;shape=mxgraph.mockup.forms.rrect;rSize=0;strokeColor=#999999;fontColor=#666666;align=left;spacingLeft=5;resizeWidth=1;" vertex="1" parent="ANCBs0r0Tn-Sa9Ewb1qD-15">
          <mxGeometry x="20.74074074074074" y="197" width="238.5185185185185" height="25" as="geometry" />
        </mxCell>
        <mxCell id="ANCBs0r0Tn-Sa9Ewb1qD-30" value="Height (cm)" style="strokeWidth=1;shadow=0;dashed=0;align=center;html=1;shape=mxgraph.mockup.forms.anchor;fontSize=12;fontColor=#666666;align=left;resizeWidth=1;spacingLeft=0;fontStyle=1" vertex="1" parent="ANCBs0r0Tn-Sa9Ewb1qD-15">
          <mxGeometry x="20.74074074074074" y="240" width="130.0237037037037" height="20" as="geometry" />
        </mxCell>
        <mxCell id="ANCBs0r0Tn-Sa9Ewb1qD-31" value="175" style="strokeWidth=1;shadow=0;dashed=0;align=center;html=1;shape=mxgraph.mockup.forms.rrect;rSize=0;strokeColor=#999999;fontColor=#666666;align=left;spacingLeft=5;resizeWidth=1;" vertex="1" parent="ANCBs0r0Tn-Sa9Ewb1qD-15">
          <mxGeometry x="20.74074074074074" y="260" width="238.5185185185185" height="25" as="geometry" />
        </mxCell>
        <mxCell id="ANCBs0r0Tn-Sa9Ewb1qD-32" value="" style="strokeWidth=1;shadow=0;dashed=0;align=center;html=1;shape=mxgraph.mockup.forms.rrect;rSize=0;strokeColor=#82b366;fillColor=#d5e8d4;labelBackgroundColor=#c6b8b8;" vertex="1" parent="ANCBs0r0Tn-Sa9Ewb1qD-1">
          <mxGeometry x="350" y="170" width="290" height="340" as="geometry" />
        </mxCell>
        <mxCell id="ANCBs0r0Tn-Sa9Ewb1qD-33" value="Review Details" style="strokeWidth=1;shadow=0;dashed=0;align=center;html=1;shape=mxgraph.mockup.forms.anchor;fontSize=16;fontColor=#666666;align=left;resizeWidth=1;spacingLeft=0;fontStyle=1" vertex="1" parent="ANCBs0r0Tn-Sa9Ewb1qD-32">
          <mxGeometry width="161.11111111111111" height="20" relative="1" as="geometry">
            <mxPoint x="90" y="10" as="offset" />
          </mxGeometry>
        </mxCell>
        <mxCell id="ANCBs0r0Tn-Sa9Ewb1qD-34" value="&lt;b style=&quot;font-size: 14px;&quot;&gt;Name&lt;/b&gt;" style="strokeWidth=1;shadow=0;dashed=0;align=center;html=1;shape=mxgraph.mockup.forms.anchor;fontSize=14;fontColor=#666666;align=left;resizeWidth=1;spacingLeft=0;" vertex="1" parent="ANCBs0r0Tn-Sa9Ewb1qD-32">
          <mxGeometry width="134.25925925925927" height="20" relative="1" as="geometry">
            <mxPoint x="20" y="49" as="offset" />
          </mxGeometry>
        </mxCell>
        <mxCell id="ANCBs0r0Tn-Sa9Ewb1qD-36" value="&lt;font style=&quot;font-size: 14px;&quot;&gt;Join Date&lt;/font&gt;" style="strokeWidth=1;shadow=0;dashed=0;align=center;html=1;shape=mxgraph.mockup.forms.anchor;fontSize=12;fontColor=#666666;align=left;resizeWidth=1;spacingLeft=0;fontStyle=1" vertex="1" parent="ANCBs0r0Tn-Sa9Ewb1qD-32">
          <mxGeometry width="134.25925925925927" height="20" relative="1" as="geometry">
            <mxPoint x="20" y="111" as="offset" />
          </mxGeometry>
        </mxCell>
        <mxCell id="ANCBs0r0Tn-Sa9Ewb1qD-38" value="&lt;span style=&quot;font-weight: normal;&quot;&gt;&lt;font style=&quot;font-size: 14px;&quot;&gt;Save&lt;/font&gt;&lt;/span&gt;" style="strokeWidth=1;shadow=0;dashed=0;align=center;html=1;shape=mxgraph.mockup.forms.rrect;rSize=5;strokeColor=#10739e;fillColor=#b1ddf0;fontSize=16;fontStyle=1;" vertex="1" parent="ANCBs0r0Tn-Sa9Ewb1qD-32">
          <mxGeometry y="1" width="110" height="30" relative="1" as="geometry">
            <mxPoint x="170" y="-40" as="offset" />
          </mxGeometry>
        </mxCell>
        <mxCell id="ANCBs0r0Tn-Sa9Ewb1qD-39" value="Salary" style="strokeWidth=1;shadow=0;dashed=0;align=center;html=1;shape=mxgraph.mockup.forms.anchor;fontSize=14;fontColor=#666666;align=left;resizeWidth=1;spacingLeft=0;fontStyle=1" vertex="1" parent="ANCBs0r0Tn-Sa9Ewb1qD-32">
          <mxGeometry x="21.481481481481485" y="178" width="134.6674074074074" height="20" as="geometry" />
        </mxCell>
        <mxCell id="ANCBs0r0Tn-Sa9Ewb1qD-43" value="&lt;span style=&quot;font-size: 15px;&quot;&gt;Bishnu Rawal&lt;/span&gt;" style="strokeWidth=1;shadow=0;dashed=0;align=center;html=1;shape=mxgraph.mockup.forms.anchor;fontSize=15;fontColor=#666666;align=left;resizeWidth=1;spacingLeft=0;fontStyle=0" vertex="1" parent="ANCBs0r0Tn-Sa9Ewb1qD-32">
          <mxGeometry x="21.481481481481485" y="70" width="236.29629629629633" height="20" as="geometry" />
        </mxCell>
        <mxCell id="ANCBs0r0Tn-Sa9Ewb1qD-44" value="&lt;span style=&quot;font-size: 15px;&quot;&gt;October 12, 2021&lt;/span&gt;" style="strokeWidth=1;shadow=0;dashed=0;align=center;html=1;shape=mxgraph.mockup.forms.anchor;fontSize=15;fontColor=#666666;align=left;resizeWidth=1;spacingLeft=0;fontStyle=0" vertex="1" parent="ANCBs0r0Tn-Sa9Ewb1qD-32">
          <mxGeometry x="21.481481481481485" y="132" width="236.29629629629633" height="20" as="geometry" />
        </mxCell>
        <mxCell id="ANCBs0r0Tn-Sa9Ewb1qD-45" value="रु&amp;nbsp;&lt;span style=&quot;font-size: 15px;&quot;&gt;10000&lt;/span&gt;" style="strokeWidth=1;shadow=0;dashed=0;align=center;html=1;shape=mxgraph.mockup.forms.anchor;fontSize=15;fontColor=#666666;align=left;resizeWidth=1;spacingLeft=0;fontStyle=0" vertex="1" parent="ANCBs0r0Tn-Sa9Ewb1qD-32">
          <mxGeometry x="21.481481481481485" y="201" width="236.29629629629633" height="20" as="geometry" />
        </mxCell>
        <mxCell id="ANCBs0r0Tn-Sa9Ewb1qD-47" value="&lt;span style=&quot;font-size: 15px;&quot;&gt;5.74&lt;/span&gt;" style="strokeWidth=1;shadow=0;dashed=0;align=center;html=1;shape=mxgraph.mockup.forms.anchor;fontSize=15;fontColor=#666666;align=left;resizeWidth=1;spacingLeft=0;fontStyle=0" vertex="1" parent="ANCBs0r0Tn-Sa9Ewb1qD-32">
          <mxGeometry x="21.481481481481485" y="266" width="236.29629629629633" height="20" as="geometry" />
        </mxCell>
        <mxCell id="ANCBs0r0Tn-Sa9Ewb1qD-48" value="Height (ft)" style="strokeWidth=1;shadow=0;dashed=0;align=center;html=1;shape=mxgraph.mockup.forms.anchor;fontSize=14;fontColor=#666666;align=left;resizeWidth=1;spacingLeft=0;fontStyle=1" vertex="1" parent="ANCBs0r0Tn-Sa9Ewb1qD-32">
          <mxGeometry x="21.481481481481485" y="245" width="134.6674074074074" height="20" as="geometry" />
        </mxCell>
      </root>
    </mxGraphModel>
  </diagram>
</mxfile>
